/* XPM */
static char *result[] = {
/* columns rows colors chars-per-pixel */
"32 32 163 2 ",
"   c #6A001E",
".  c #64002A",
"X  c #720024",
"o  c #74002E",
"O  c #650031",
"+  c #6F0036",
"@  c #6E003C",
"#  c #730035",
"$  c #7A0035",
"%  c #72003D",
"&  c #7B003A",
"*  c #5F0046",
"=  c #650041",
"-  c #6E0043",
";  c #6C064F",
":  c #730044",
">  c #7A0045",
",  c #74034C",
"<  c #7C034C",
"1  c #730651",
"2  c #7A0752",
"3  c #7A0B55",
"4  c #64145E",
"5  c #71135B",
"6  c #781258",
"7  c #78185C",
"8  c #761B61",
"9  c #542D75",
"0  c #592A72",
"q  c #4E3077",
"w  c #4D3078",
"e  c #503076",
"r  c #6F266A",
"t  c #66296D",
"y  c #69286C",
"u  c #772266",
"i  c #7C2164",
"p  c #732469",
"a  c #7E2768",
"s  c #612A70",
"d  c #682C71",
"f  c #86002E",
"g  c #820034",
"h  c #8F0032",
"j  c #82003B",
"k  c #8B003C",
"l  c #92003E",
"z  c #8B0144",
"x  c #85064C",
"c  c #920247",
"v  c #93054A",
"b  c #960A4E",
"n  c #990A4E",
"m  c #880B52",
"M  c #850D54",
"N  c #950D52",
"B  c #980E52",
"V  c #851257",
"C  c #861D5F",
"Z  c #8D1A5C",
"A  c #971254",
"S  c #9B1456",
"D  c #961758",
"F  c #9A1758",
"G  c #941859",
"H  c #991B5B",
"J  c #A80748",
"K  c #AC0E4D",
"L  c #A9104F",
"P  c #A31253",
"I  c #A81151",
"U  c #A61957",
"Y  c #9F225E",
"T  c #841E61",
"R  c #852465",
"E  c #832969",
"W  c #9C2462",
"Q  c #84316E",
"!  c #8C326F",
"~  c #833773",
"^  c #8A3270",
"/  c #863A75",
"(  c #8E3B76",
")  c #853F7B",
"_  c #8E3E78",
"`  c #973570",
"'  c #983871",
"]  c #AF3067",
"[  c #A63B70",
"{  c #81447F",
"}  c #8C417B",
"|  c #8D4C83",
" . c #964F86",
".. c #97568B",
"X. c #9C5589",
"o. c #965A8D",
"O. c #9B5E8F",
"+. c #A15386",
"@. c #A95A8A",
"#. c #9A6091",
"$. c #966A9A",
"%. c #9C6B9A",
"&. c #A76997",
"*. c #A76D9A",
"=. c #B76A94",
"-. c #BA6B94",
";. c #A5719D",
":. c #AA759E",
">. c #B0719B",
",. c #A27BA4",
"<. c #AC7CA4",
"1. c #CD789C",
"2. c #A187AF",
"3. c #AD84AA",
"4. c #B083AA",
"5. c #BD8EB0",
"6. c #AD93B6",
"7. c #AD95B8",
"8. c #A59CBF",
"9. c #AA9ABD",
"0. c #B195B8",
"q. c #B698B8",
"w. c #BA9BBB",
"e. c #C19EBC",
"r. c #AF9EC0",
"t. c #ACA2C3",
"y. c #BDA4C2",
"u. c #B7ACC7",
"i. c #BEB3CC",
"p. c #C4A3C1",
"a. c #C2ADC6",
"s. c #C3B2CB",
"d. c #D4B3C9",
"f. c #C4BDD3",
"g. c #C5C1D7",
"h. c #C9C5DA",
"j. c #C9CCDF",
"k. c #D0C7D9",
"l. c #C7CFE2",
"z. c #CCCFE1",
"x. c #D5D5E4",
"c. c #DDD5E3",
"v. c #D2D8E7",
"b. c #D9DAE7",
"n. c #D3DBE9",
"m. c #DADEEA",
"M. c #D5E2EE",
"N. c #DCE3EE",
"B. c #D7E6F1",
"V. c #DAE6F1",
"C. c #DCE8F2",
"Z. c #F3E2EA",
"A. c #E3ECF4",
"S. c #E8F1F7",
"D. c #E6F3F9",
"F. c #E9F6FA",
"G. c #E4F9FE",
"H. c #ECFFFF",
"J. c #FDF3F6",
"K. c #F3F6FA",
"L. c #F4FFFF",
"P. c #FFFFFF",
"I. c None",
/* pixels */
"I.I.I.I.I.I.I.I.I.I.I.p Z S P S S P U z : 4 I.I.I.I.I.I.I.I.I.I.",
"I.I.I.I.I.I.I.I.I.C I I S D D D D H x @.-.] c * I.I.I.I.I.I.I.I.",
"I.I.I.I.I.I.I.u I P D G D D D B B b > A.P.s._ 1.[ 0 I.I.I.I.I.I.",
"I.I.I.I.I.I.G K D G G F v j : 3 3 O E P.P.&.p.P.c.l 8 I.I.I.I.I.",
"I.I.I.I.I.D I G G G D M | 9.n.S.m.f.f.v.g.{ J.P.5.$ K i I.I.I.I.",
"I.I.I.I.G I G G D D S m a :.e.N.P.P.P.K.h.t.A.P.` z D L r I.I.I.",
"I.I.I.p L G G G b $ : > : X X : | M.P.P.P.P.V.8.% F G D K q I.I.",
"I.I.I.I D G H j 6 ;.i.j.g.3.R g g ; g.P.P.P.P.b.~ & H G P D I.I.",
"I.I.T I G H & / n.P.P.P.P.P.P.,.x k = l.P.P.P.P.F.7 z D G K t I.",
"I.I.P D D z E H.P.P.P.P.P.P.h.2.3 F k 7 F.P.P.P.P.g.@ D G S G I.",
"I.r L G D @ g.P.P.P.P.P.N.~ @ j H D H # ,.P.P.P.P.P.} z G G I I.",
"I.Z S G c ! L.P.P.P.P.C.5 $ D D G D D v 3 A.P.P.P.P.w.# D G I r ",
"I.S F G & :.P.P.P.P.P.o.o H G G G G G D # y.P.P.P.P.x., A G S T ",
"9 P D D % q.P.P.P.P.m., B D G G G G D G & *.P.P.P.P.A.R v G S G ",
"t S D D % a.P.P.P.P.a.@ D G G G G G G G j X.P.P.P.P.H.! c G S G ",
"r S D F : a.P.P.P.P.a.% F D G G G G G G j X.P.P.P.P.H.^ z G S Z ",
"t S D D % q.P.P.P.P.n., A G D G D G G G # <.P.P.P.P.F.R v G S G ",
"I.P D G $ <.P.P.P.P.P.} $ H G D G G D b - n.P.P.P.P.b.2 A G S Z ",
"I.D D G z ( P.P.P.P.P.n.; g S D D G c . 6.P.P.P.P.P.y.% D D P 8 ",
"I.T P G S : z.P.P.P.P.P.v.Q @ # $ + 1 7.P.P.P.P.P.P. .j G D I y ",
"I.t L D G & ..P.P.P.P.P.P.L.i.<.:.q.B.P.P.P.P.P.P.z.- D G D P I.",
"I.I.S F H D % i.P.P.P.P.P.P.P.P.P.P.P.P.P.P.P.P.H.a k G G P R I.",
"I.I.p L G G v - j.P.P.P.P.P.P.P.P.P.P.P.P.P.P.L.| $ H G D L 9 I.",
"I.I.I.S S G H z , u.P.P.P.P.P.P.P.P.P.P.P.P.B.} $ F G G I C I.I.",
"I.I.I.0 K F G H c - #.h.K.P.P.P.P.P.P.P.G.q.6 & H G D S P I.I.I.",
"I.I.I.I.p K G G G S . 9.M.z.h.N.A.M.f.3.E % c H G G S L w I.I.I.",
"I.I.I.I.I.i K D G z ' P.P.%.$.N.l.5 % $ c H G G G S L 0 I.I.I.I.",
"I.I.I.I.I.I.r K P $ 4.P.P.O.Z.P.d.# A D G G D D P P q I.I.I.I.I.",
"I.I.I.I.I.I.I.e F J W :.<.,.P.P.+.$ D D D D P L C I.I.I.I.I.I.I.",
"I.I.I.I.I.I.I.I.I.d N h f Y =.e.G n F P I P T 9 I.I.I.I.I.I.I.I.",
"I.I.I.I.I.I.I.I.I.I.I.I.p V & : G G Z R y I.I.I.I.I.I.I.I.I.I.I.",
"I.I.I.I.I.I.I.I.I.I.I.I.I.I.I.I.I.I.I.I.I.I.I.I.I.I.I.I.I.I.I.I."
};
