/* XPM */
static char *result[] = {
/* columns rows colors chars-per-pixel */
"64 64 203 2 ",
"   c #3B0022",
".  c #4F003E",
"X  c #420032",
"o  c #52003B",
"O  c #5D003D",
"+  c #47002B",
"@  c #640034",
"#  c #6C0035",
"$  c #63003D",
"%  c #6D003C",
"&  c #730037",
"*  c #790035",
"=  c #73003D",
"-  c #7A003C",
";  c #3C0355",
":  c #3C357E",
">  c #36367F",
",  c #4D0046",
"<  c #5B0043",
"1  c #54014D",
"2  c #5C014C",
"3  c #540554",
"4  c #5C0554",
"5  c #5B0B59",
"6  c #5D125D",
"7  c #480252",
"8  c #620043",
"9  c #6B0043",
"0  c #64024C",
"q  c #69024D",
"w  c #78034A",
"e  c #640552",
"r  c #6B0553",
"t  c #6B0955",
"y  c #650D59",
"u  c #630A56",
"i  c #740D56",
"p  c #69135C",
"a  c #75145B",
"s  c #7E195D",
"d  c #5A1A65",
"f  c #6A1C64",
"g  c #661E66",
"h  c #731D64",
"j  c #542D75",
"k  c #5D2B71",
"l  c #44337B",
"z  c #4B3279",
"x  c #4F3077",
"c  c #583378",
"v  c #5C266D",
"b  c #6D266A",
"n  c #65296E",
"m  c #6B296D",
"M  c #762267",
"N  c #7B2165",
"B  c #732368",
"V  c #7A2A6C",
"C  c #78296B",
"Z  c #632C71",
"A  c #702C70",
"S  c #643478",
"D  c #693779",
"F  c #763878",
"G  c #77417E",
"H  c #860034",
"J  c #84003C",
"K  c #8A003D",
"L  c #950034",
"P  c #95003D",
"I  c #860041",
"U  c #8C0041",
"Y  c #85064B",
"T  c #930245",
"R  c #9A0245",
"E  c #96064A",
"W  c #9B0549",
"Q  c #9C0C4E",
"!  c #950E4F",
"~  c #9C0E51",
"^  c #940C51",
"/  c #871B5E",
"(  c #8B1B5D",
")  c #881559",
"_  c #9C1556",
"`  c #961758",
"'  c #981758",
"]  c #941859",
"[  c #9A1A5A",
"{  c #931457",
"}  c #A10C4E",
"|  c #AC0E4D",
" . c #A40546",
".. c #AA104F",
"X. c #A10E51",
"o. c #A41252",
"O. c #A91151",
"+. c #A11857",
"@. c #A01958",
"#. c #A0215F",
"$. c #831F62",
"%. c #852365",
"&. c #873C78",
"*. c #913F7C",
"=. c #98427B",
"-. c #5E3E80",
";. c #673F80",
":. c #634887",
">. c #7F4B85",
",. c #764D88",
"<. c #7E528A",
"1. c #6B5992",
"2. c #755B92",
"3. c #67528D",
"4. c #796095",
"5. c #7B78A8",
"6. c #8D4C84",
"7. c #814B84",
"8. c #81548C",
"9. c #8D568C",
"0. c #955489",
"q. c #835B90",
"w. c #8E5F91",
"e. c #985F91",
"r. c #8B6C9D",
"t. c #886598",
"y. c #9A6695",
"u. c #AF6E99",
"i. c #836EA0",
"p. c #8B7AA7",
"a. c #8976A4",
"s. c #967AA6",
"d. c #A778A2",
"f. c #7A8DB8",
"g. c #7495C0",
"h. c #8B82AE",
"j. c #9582AC",
"k. c #888CB6",
"l. c #9C8CB3",
"z. c #958AB3",
"x. c #9D99BE",
"c. c #9B92B9",
"v. c #8694BC",
"b. c #A996BA",
"n. c #B595B8",
"m. c #8F9AC1",
"M. c #929DC2",
"N. c #AE9EC0",
"B. c #93A2C6",
"V. c #95ABCB",
"C. c #98A8CA",
"Z. c #9CB1CF",
"A. c #90ABCD",
"S. c #A4AECC",
"D. c #A9AAC7",
"F. c #BBA4C2",
"G. c #BAABC7",
"H. c #B5A3C3",
"J. c #A5B1CE",
"K. c #ABB2CE",
"L. c #B6B2CD",
"P. c #AAB5D1",
"I. c #A5B8D4",
"U. c #BAB8D2",
"Y. c #C5BBD3",
"T. c #B3C2DA",
"R. c #B9C3DA",
"E. c #BBC9DF",
"W. c #91CCE6",
"Q. c #AECCE3",
"!. c #B3CDE3",
"~. c #BBCDE2",
"^. c #B6D1E6",
"/. c #BBDCED",
"(. c #BAD3E6",
"). c #BFE0EF",
"_. c #ACE8F8",
"`. c #C4CADE",
"'. c #DBC2D5",
"]. c #C1CCE0",
"[. c #D5CFE1",
"{. c #C3D5E6",
"}. c #C3DBEB",
"|. c #C7D7E8",
" X c #D3DDEA",
".X c #D3D7E6",
"XX c #C6E1EF",
"oX c #DAE1ED",
"OX c #C4E4F2",
"+X c #CDE9F4",
"@X c #D3ECF6",
"#X c #D7EBF6",
"$X c #DBF6FC",
"%X c #DDFCFF",
"&X c #D5F6FD",
"*X c #E9EBF3",
"=X c #E4FFFF",
"-X c #ECFFFF",
";X c #E6F0F8",
":X c #F4FEFF",
">X c #FFFFFF",
",X c #F4F6F9",
"<X c None",
/* pixels */
"<X<X<X<X<X<X<X<X<X<X<X<X<X<X<X<X<X<X<X<X<X<X<X<X<X<X<X<X<X<X<X<X<X<X<X<X<X<X<X<X<X<X<X<X<X<X<X<X<X<X<X<X<X<X<X<X<X<X<X<X<X<X<X<X",
"<X<X<X<X<X<X<X<X<X<X<X<X<X<X<X<X<X<X<X<X<X<X<X<X<X<X<Xj n b M M M B m n x <X<X<X<X<X<X<X<X<X<X<X<X<X<X<X<X<X<X<X<X<X<X<X<X<X<X<X",
"<X<X<X<X<X<X<X<X<X<X<X<X<X<X<X<X<X<X<X<X<X<Xl n $.] o.o.O.X.o.O.o.o.O.o.o._ ] M k <X<X<X<X<X<X<X<X<X<X<X<X<X<X<X<X<X<X<X<X<X<X<X",
"<X<X<X<X<X<X<X<X<X<X<X<X<X<X<X<X<X<X<X<Xn ( o...o._ ] ] ] ] ] ] ] ] ] ] ] _ W | .._ %.c <X<X<X<X<X<X<X<X<X<X<X<X<X<X<X<X<X<X<X<X",
"<X<X<X<X<X<X<X<X<X<X<X<X<X<X<X<X<X<Xb _ ..o.` ] ] ] ] ] ] ] ] ] ] ] ] ] _ ) M w * T  .O.( k <X<X<X<X<X<X<X<X<X<X<X<X<X<X<X<X<X<X",
"<X<X<X<X<X<X<X<X<X<X<X<X<X<X<X<Xn _ .._ ] ] ] ] ] ] ] ] ] ] ] ] ] ] ] ] J 9.+XU.s.&.%.{ L  .] z <X<X<X<X<X<X<X<X<X<X<X<X<X<X<X<X",
"<X<X<X<X<X<X<X<X<X<X<X<X<X<Xl ] | _ ] ] ] ] ] ] ] ] ] ] ] ] ] ] ] ] ] ` # F.>X>X>X:Xd.9 6.a * L s <X<X<X<X<X<X<X<X<X<X<X<X<X<X<X",
"<X<X<X<X<X<X<X<X<X<X<X<X<Xn o.o.] ] ] ] ] ] ] ] ] ] ] ] ] ] ] ] ] ] ] Q a #X>X>X>X>X%.&.:XoXN.e.#.! : <X<X<X<X<X<X<X<X<X<X<X<X<X",
"<X<X<X<X<X<X<X<X<X<X<X<XN | _ ] ] ] ] ] ] ] ] ] ] ] ] _ _ _ Q Q Q ~ _ H e.>X>X>X>X.X+ F.>X>X>X>Xq.L o.j <X<X<X<X<X<X<X<X<X<X<X<X",
"<X<X<X<X<X<X<X<X<X<X<X( | ] ] ] ] ] ] ] ] ] ] ` _ W K = 9 q y p y e 9 + G.>X>X>X>Xd.o ;X>X>X>XoXi ^ _ ..n <X<X<X<X<X<X<X<X<X<X<X",
"<X<X<X<X<X<X<X<X<X<X( ..] ] ] ] ] ] ] ] ] ] _ Q w V <.j.D.R.(.}.}.E.L.z.B.S.`.>X>Xi *.>X>X>X>Xn.= ' ] ] | m <X<X<X<X<X<X<X<X<X<X",
"<X<X<X<X<X<X<X<X<X( ..] ] ] ] ] ] ] ] ] ] _ ) z g._.-X>X>X>X>X>X>X>X>X>X,X`.S.J.k.  '.>X>X>X:X6.K ] ] ] _ | k <X<X<X<X<X<X<X<X<X",
"<X<X<X<X<X<X<X<XM | ] ] ] ] ] ] ] ] ] ] ] _ / A 0.0.w.p.K.@X>X>X>X>X>X>X>X>X>X;XD.3.K.>X>X>X Xr ~ ] ] ] ] _ O.z <X<X<X<X<X<X<X<X",
"<X<X<X<X<X<X<Xk | ] ] ] ] ] ] ] ] ] ] ] ] ] ] X.E T J = 8 b i./.>X>X>X>X>X>X>X>X>X>XJ.M.oX>Xn.& ] ] ] ] ] ] _ o.<X<X<X<X<X<X<X<X",
"<X<X<X<X<X<X> o._ ] ] ] ] ] ] ] ` ` ] ` _ Q Q Q _ _ ] ' _ W & 4 5.&X>X>X>X>X>X>X>X>X>X].M.T.=.K ] ] ] ] ] ] ] O.( <X<X<X<X<X<X<X",
"<X<X<X<X<X<X( o.] ] ] ] ] ] ] ] ` _ T = 0 u p p 0 9 J X.' ] [ Q @ v Q.>X>X>X>X>X>X>X>X>X,XB.7 T [ ] ] ] ] ] ] ] ..k <X<X<X<X<X<X",
"<X<X<X<X<Xk | ] ] ] ] ] ] ] ] +.U 8 F j.I.(.}.|.T.x.q.5 - o.] ] @.K 1 V.>X>X>X>X>X>X>X>X>X>XZ.1 W ] ] ] ] ] ] ] _ _ <X<X<X<X<X<X",
"<X<X<X<X<X_ _ ] ] ] ] ] ] ] Q % D J.%X>X>X>X>X>X>X>X>X^.4.< W ' ] ' R o B.>X>X>X>X>X>X>X>X>X>XZ.< Q ] ] ] ] ] ] ] | B <X<X<X<X<X",
"<X<X<X<Xn ..] ] ] ] ] ] ] Q O 5.%X>X>X>X>X>X>X>X>X>X>X>X>XB.0 W ] ] ] Q . Z.>X>X>X>X>X>X>X>X>X>Xk.# +.] ] ] ] ] ] _ _ <X<X<X<X<X",
"<X<X<X<X] _ ] ] ] ] ] ] _ $ v.>X>X>X>X>X>X>X>X>X>X>X>X>X>X>XW.5 ~ ] ] [ R 7 /.>X>X>X>X>X>X>X>X>X:X:.J [ ] ] ] ] ] ] ..b <X<X<X<X",
"<X<X<Xj o.] ] ] ] ] ] +.% 5.>X>X>X>X>X>X>X>X>X>X>X>X>X-XT.l.p.b _ ] ] ] [ K c -X>X>X>X>X>X>X>X>X>X/.1 Q ] ] ] ] ] ] _ ] <X<X<X<X",
"<X<X<X%.o.] ] ` ] ] ] U Z :X>X>X>X>X>X>X>X>X>X>X>X>XZ.D 2 % J _ ] ` ] ] ] @.@ k.>X>X>X>X>X>X>X>X>X>Xr.- ] ] ] ] ] ] ] ..k <X<X<X",
"<X<X<X_ ` ] ] ] ] ] _ O J.>X>X>X>X>X>X>X>X>X>X>X=X1.O K o.` ` ] ] ] ] ] ] ] W 5 @X>X>X>X>X>X>X>X>X>X/.2 o.] ] ] ] ] ] o.N <X<X<X",
"<X<Xj O.` ] ] ] ] ] W b %X>X>X>X>X>X>X>X>X>X>X$Xc # o.] ] ] ] ] ] ] ] ] ] ] ' # h.>X>X>X>X>X>X>X>X>X>X<.J ] ] ] ] ] ] _ ] <X<X<X",
"<X<XM o.] ] ] ] ] ` * a.>X>X>X>X>X>X>X>X>X>X-X:.* _ ] ] ] ] ] ] ] ] ] ] ] ] ] R g $X>X>X>X>X>X>X>X>X>Xx.$ _ ] ] ] ] ] ] O.x <X<X",
"<X<X( _ ] ] { ] ] _ 8 K.>X>X>X>X>X>X>X>X>X>Xk.@ o.] ] ] { ] ] ] ] ] ] ` ] ] ] _ $ K.>X>X>X>X>X>X>X>X>X{.r _ ] ] ] ] ] ] ..n <X<X",
"<X<X' _ ] ] ] ] ] Q y XX>X>X>X>X>X>X>X>X>X+X5  .] ] ] ] ] ] ] ] ] ] ] ] ] ] ] ` - r.>X>X>X>X>X>X>X>X>X=XV E ] ] ] ] ] ] o.M <X<X",
"<Xl +.] ] ] ] ] ] T F -X>X>X>X>X>X>X>X>X>Xz.@ ' ] ] ] ] ] ] ] ] ] ] ] ] ] ] ] ] T F -X>X>X>X>X>X>X>X>X>X8.I ] ] ] ] ] ] o.$.<X<X",
"<Xk O.] ] ] ] ] ' I 8.>X>X>X>X>X>X>X>X>X:XG K ] ] ] ] ] ] ] ] ] ] ] ` ] ] ] ] ] Q f @X>X>X>X>X>X>X>X>X>Xi.- ' ] ] ] ] ] _ ] <X<X",
"<Xk O.] ] ] ] ] ] - r.>X>X>X>X>X>X>X>X>X+Xf Q ` ] ] ] ] ] ] ] ] ] ] ] ] ] ] ] ] ~ r {.>X>X>X>X>X>X>X>X>Xs.= ' ] ] ] ] ] _ ] <X<X",
"<Xn o.] ] ] ] ] ] * p.>X>X>X>X>X>X>X>X>XE.e ~ ` ] ] ] ] ] ] ] ] ] ] ] ] ] ] ] ] ~ q R.>X>X>X>X>X>X>X>X>Xl.= _ ] ] ] ] ] ' _ z <X",
"<Xm o.] ] ] ] ] _ w s.>X>X>X>X>X>X>X>X>XR.q _ ` ] ] ] ] ] ] ] ] ] ] ] ] ] ] ] ] _ q R.>X>X>X>X>X>X>X>X>Xc.9 _ ] ] ] ] ] ] _ x <X",
"<Xm o.] ] ] ` ] ] - a.>X>X>X>X>X>X>X>X>X(.t Q ] ] ] ] ] ] ] ] ] ] ] ] ] ] ] ] ] _ r {.>X>X>X>X>X>X>X>X>Xl.9 ` ` ] ] ] ] ` _ z <X",
"<Xn o.` ] ] ] ] ] J t.>X>X>X>X>X>X>X>X>X%Xb W ] ] ] ] ] ] ] ] ] ] ] ] ] ] ] ] { T B $X>X>X>X>X>X>X>X>X>Xs.* ` ` ] ] ] ] ` _ z <X",
"<Xk o.` ` ] ] ] ] I >.>X>X>X>X>X>X>X>X>X>Xq.- ` ] ` ] ] ] ] ] ] ] ] ] ] ] ] ] ] J <.>X>X>X>X>X>X>X>X>X>Xt.w ] ] ] ] ] ] _ ] <X<X",
"<Xj o.] ] ] ] ] ] W m $X>X>X>X>X>X>X>X>X>XJ.O @.] ] ] ] ] ] ] ] ] ] ] ] ] ] ] o.O S.>X>X>X>X>X>X>X>X>X:X>.U ] ] ] ] ] ] _ ] <X<X",
"<X: _ _ ] ] ] ] ] _ 0 ~.>X>X>X>X>X>X>X>X>X-XS K ] ] ] ] ] ] ] ] ] ] ] ] ] ] ] K S -X>X>X>X>X>X>X>X>X>X$XM T ] ] ] ] ] ] o.$.<X<X",
"<X<X] _ ] ] ] ] ] _ $ b.>X>X>X>X>X>X>X>X>X>X~., R [ ] ] ] ] ] ] ] ] ] ] ] ] W , (.>X>X>X>X>X>X>X>X>X>XT.8 _ ] ] ] ] ] ] o.B <X<X",
"<X<X$.+.] ] ] ] ] ] I <.>X>X>X>X>X>X>X>X>X>X>XV.. R [ ] ] ] ] ] ] ] ] ] [ P o C.>X>X>X>X>X>X>X>X>X>X>Xj.= ' ] ] ] ] ] ] O.Z <X<X",
"<X<Xb ..] ] ] ] ] ] ~ 4 OX>X>X>X>X>X>X>X>X>X>X>XZ.3 * } ' ] ] ] ] ] ] | * 3 V.>X>X>X>X>X>X>X>X>X>X>X=XA T ] ] ] ] ] ] ] o.l <X<X",
"<X<Xx o.] ] ] ] ] ] ] % h.>X>X>X>X>X>X>X>X>X>X>X>X/.2.2 % K T E T I % 4 2./.>X>X>X>X>X>X>X>X>X>X>X>XJ.O _ ] ] ] ] ] ] _ ( <X<X<X",
"<X<X<X] _ ] ] ] ] ] [ W 6 $X>X>X>X>X>X>X>X>X>X>X>X>X>X!.p.>.V B V 7.p.^.>X>X>X>X>X>X>X>X>X>X>X>X>X-XD T ] ] ] ] ` ] ] ..M <X<X<X",
"<X<X<XB o.] ] ] ] ] ] [ & 5.>X>X>X>X>X>X>X>X>X>X>X>X>X>X>X:X$X#X$X:X>X>X>X>X>X>X>X>X>X>X>X>X>X>X>XM.$ _ ] ] ] ] ] ] ] o.x <X<X<X",
"<X<X<Xl o.[ ] ] ] [ [ [ o.< Q.>X>X>X>X>X>X>X>X>X>X>X>X>X>X>X>X>X>X>X>X>X>X>X>X>X>X>X>X>X>X>X>X>XOX4 ~ ] [ ] [ ] ] ] o.( <X<X<X<X",
"<X<X<X<X$.o.] ] ] ] ] ] [ T d &X>X>X>X>X>X>X>X>X>X>X>X>X>X>X>X>X>X>X>X>X>X>X>X>X>X>X>X>X>X>X>X%Xk K [ [ ] ] ] [ ] ] ..k <X<X<X<X",
"<X<X<X<Xj ..] ] ] ] ] ] ] @.- S =X>X>X>X>X>X>X>X>X>X>X>X>X>X>X>X>X>X>X>X>X>X>X>X>X>X>X>X>X>X-X3.& [ ] ] ] ] ] ] ] +.] <X<X<X<X<X",
"<X<X<X<X<X( O.] ] ] ] ] ] ] @.& :.%X>X>X>X>X>X>X>X>X>X>X>X>X>X>X>X>X>X>X>X>X>X>X>X>X>X>X>X%X3.& +.] ] ] ] ] ] ] ] ..k <X<X<X<X<X",
"<X<X<X<X<Xl O.] ] ] ] ] ] ] ] @.& S /.>X>X>X>X>X>X>X>X>X>X>X>X>X>X>X>X>X>X>X>X>X>X>X>X>XOXS & @.] ] ] ] ] ] ] ] o.] <X<X<X<X<X<X",
"<X<X<X<X<X<XB | ] ] ] ] ] ] ] ] [ J 5 B.>X>X>X>X>X>X>X>X>X>X>X>X>X>X>X>X>X>X>X>X>X>X>XV.6 J _ ] ] ] ] ] ] ] ] ] ..l <X<X<X<X<X<X",
"<X<X<X<X<X<X<X] +.] ] ] ] ] ] ] ] [ W O 2.^.>X>X>X>X>X>X>X>X>X>X>X>X>X>X>X>X>X>X>X/.4.< T [ ] ] ] ] ] ] ] ] ] | b <X<X<X<X<X<X<X",
"<X<X<X<X<X<X<X: o._ ] ] ] ] ] ] ] ] ] o.* 3 f.T. X>X>X>X>X>X>X>X>X>X>X>X>X>X:X^.5.u * o.] ] ] ] ] ] ] ] ] ] o.( <X<X<X<X<X<X<X<X",
"<X<X<X<X<X<X<X<Xj | _ ] ] ] ] ] ] ] ] ] W )  X`.B.S.E.#X*X,X>X>X>X>X>X&X~.x.,.e = W [ ] ] ] ] ] ] ] ] ] ] o._ <X<X<X<X<X<X<X<X<X",
"<X<X<X<X<X<X<X<X<Xm .._ ] ] ] ] ] ] ] ] * y.>X>X>XoXx.; M.P.J.K.I.h.>.m u % J Q ' ] ] ] ] ] ] ] ] ] ] ] _ o.> <X<X<X<X<X<X<X<X<X",
"<X<X<X<X<X<X<X<X<X<Xb | _ ] ] ] ] ] ] ' 9 U.>X>X>X>Xu.O ,X:X*X*X}.2 H W Q _ ] ] ` ] ] ] ] ] ] ] ] ] ] o.o.l <X<X<X<X<X<X<X<X<X<X",
"<X<X<X<X<X<X<X<X<X<X<Xn | _ ( ] ] ] ] T %.-X>X>X>X:X0 u.>X>X>X>XG.# ' ` ] ] ] ] ] ] ] ] ] ] ] ] ] ] o._ > <X<X<X<X<X<X<X<X<X<X<X",
"<X<X<X<X<X<X<X<X<X<X<X<Xj o.o.] ] ] ` = b.>X>X>X>XY.X [.>X>X>X>X0.K ] ] ] ] ] ] ] ] ] ] ] ] ] ] ] ..] <X<X<X<X<X<X<X<X<X<X<X<X<X",
"<X<X<X<X<X<X<X<X<X<X<X<X<X> ] | _ ] ] Y 9.L.$X>X>X0.t :X>X>X>X#Xi ! ] ] ] ] ] ] ] ] ] ] ] ] ] o...M <X<X<X<X<X<X<X<X<X<X<X<X<X<X",
"<X<X<X<X<X<X<X<X<X<X<X<X<X<X<Xb o.o.] [ U 9 N d.U.e n.>X>X>X>XH.% ] ] ] ] ] ] ] ] ] ] ] ] _ ..] j <X<X<X<X<X<X<X<X<X<X<X<X<X<X<X",
"<X<X<X<X<X<X<X<X<X<X<X<X<X<X<X<X: $.o.O.' ' E - 9 Y y.G.+X>X>X6.K ] ] ] ] ] ] ] ] ] ] _ .._ m <X<X<X<X<X<X<X<X<X<X<X<X<X<X<X<X<X",
"<X<X<X<X<X<X<X<X<X<X<X<X<X<X<X<X<X<Xz N o.O._ ' _ [ I = a y.b.$.Q ] ] ] ] ] ] ] _ o...] m <X<X<X<X<X<X<X<X<X<X<X<X<X<X<X<X<X<X<X",
"<X<X<X<X<X<X<X<X<X<X<X<X<X<X<X<X<X<X<X<X: b ( o...O.] ] Q J % { ' ] ] ] ] _ O.O._ %.k <X<X<X<X<X<X<X<X<X<X<X<X<X<X<X<X<X<X<X<X<X",
"<X<X<X<X<X<X<X<X<X<X<X<X<X<X<X<X<X<X<X<X<X<X<Xl n B ] ' ] ] _ ] ] ] ] ] ` / b j <X<X<X<X<X<X<X<X<X<X<X<X<X<X<X<X<X<X<X<X<X<X<X<X",
"<X<X<X<X<X<X<X<X<X<X<X<X<X<X<X<X<X<X<X<X<X<X<X<X<X<X<X<X<X<X<X<X<X<X<X<X<X<X<X<X<X<X<X<X<X<X<X<X<X<X<X<X<X<X<X<X<X<X<X<X<X<X<X<X",
"<X<X<X<X<X<X<X<X<X<X<X<X<X<X<X<X<X<X<X<X<X<X<X<X<X<X<X<X<X<X<X<X<X<X<X<X<X<X<X<X<X<X<X<X<X<X<X<X<X<X<X<X<X<X<X<X<X<X<X<X<X<X<X<X"
};
