/* XPM */
static char *result[] = {
/* columns rows colors chars-per-pixel */
"16 16 139 2 ",
"   c #560015",
".  c #670020",
"X  c #67002C",
"o  c #720029",
"O  c #7B002C",
"+  c #700033",
"@  c #700034",
"#  c #7A0033",
"$  c #780034",
"%  c #75003D",
"&  c #790038",
"*  c #7B003C",
"=  c #7B003D",
"-  c #7C0145",
";  c #7F0045",
":  c #710D57",
">  c #7D0A52",
",  c #6A115B",
"<  c #7C1F63",
"1  c #542067",
"2  c #6D266A",
"3  c #63296E",
"4  c #622A6F",
"5  c #67286E",
"6  c #6D296D",
"7  c #792164",
"8  c #7C2366",
"9  c #73266A",
"0  c #74276A",
"q  c #70296D",
"w  c #632B70",
"e  c #880026",
"r  c #91002D",
"t  c #9B002B",
"y  c #860030",
"u  c #800037",
"i  c #870035",
"p  c #81003A",
"a  c #850038",
"s  c #87003D",
"d  c #930032",
"f  c #9A0035",
"g  c #930038",
"h  c #A2013D",
"j  c #A0003E",
"k  c #860246",
"l  c #890146",
"z  c #8E0247",
"x  c #8D0348",
"c  c #860B4F",
"v  c #920145",
"b  c #90064B",
"n  c #930D52",
"m  c #821453",
"M  c #841356",
"N  c #841257",
"B  c #851658",
"V  c #851A5D",
"C  c #8C1B5E",
"Z  c #8B1E5F",
"A  c #971053",
"S  c #971557",
"D  c #9F1255",
"F  c #951B5B",
"G  c #911C5E",
"H  c #971C5D",
"J  c #98195A",
"K  c #9F195A",
"L  c #A90342",
"P  c #AD0543",
"I  c #A00A4D",
"U  c #AB0A4A",
"Y  c #AF0B4A",
"T  c #A61151",
"R  c #A61254",
"E  c #A31555",
"W  c #A91252",
"Q  c #A61857",
"!  c #831F61",
"~  c #822063",
"^  c #842163",
"/  c #942B69",
"(  c #973B6F",
")  c #9B3871",
"_  c #A93D72",
"`  c #9E4578",
"'  c #9E457C",
"]  c #A0457A",
"[  c #B04276",
"{  c #A35182",
"}  c #A05084",
"|  c #A15284",
" . c #A45B8A",
".. c #AB5B89",
"X. c #B45181",
"o. c #AE6291",
"O. c #B36B96",
"+. c #B16D99",
"@. c #B1749D",
"#. c #C9668E",
"$. c #D37D9F",
"%. c #B789AD",
"&. c #BF97B7",
"*. c #C496B5",
"=. c #C99EBB",
"-. c #C7A3B8",
";. c #C1A0BE",
":. c #C4A3BF",
">. c #CEABC3",
",. c #CCABC5",
"<. c #CEADC5",
"1. c #CCAFC6",
"2. c #CFB3CA",
"3. c #D1B0C7",
"4. c #D1B1C8",
"5. c #D2B1C8",
"6. c #D8BBD0",
"7. c #EDAEC2",
"8. c #D7C0D3",
"9. c #D3C1D6",
"0. c #E4C3D4",
"q. c #E1D3E1",
"w. c #E2D4E1",
"e. c #F2D7E1",
"r. c #E7E0EA",
"t. c #E7E6EF",
"y. c #E9EEF5",
"u. c #ECEFF5",
"i. c #F1EFF5",
"p. c #E3F5FC",
"a. c #E0F7FE",
"s. c #E7F7FC",
"d. c #F1F3F7",
"f. c #F7FFFF",
"g. c #F9FCFD",
"h. c #F8FDFE",
"j. c #F8FFFF",
"k. c white",
"l. c None",
/* pixels */
"l.l.l.l.l.l.l.l.l.l.l.l.l.l.l.l.",
"l.l.l.l.l.l.3 ! G , l.l.l.l.l.l.",
"l.l.l.l.2 E U v . $.7.} l.l.l.l.",
"l.l.l.^ Y a > %.9.y.s.e.W l.l.l.",
"l.l.q L ; ]  .` -.k.h.;.O R l.l.",
"l.l.I k 1.k.k.:.  o.k.g.| d 8 l.",
"l.5 r +.k.k.*.c n @ 8.k.q.- A l.",
"l.< i 3.k.w.% z H $ O.k.f./ x l.",
"l.V s 6.k.4.+ J F # ..k.k.) l l.",
"l.7 y =.k.i.Z o p X 5.k.d.C b l.",
"l.4 f ' k.k.r.{ ( ,.k.k.<.& S l.",
"l.l.D u &.k.k.k.k.k.k.t.M h 9 l.",
"l.l.w P * @.u.g.k.j.>.B g K l.l.",
"l.l.l.0 t [ a.p.2.m = j Q l.l.l.",
"l.l.l.l.1 _ #.0.X.e T ~ l.l.l.l.",
"l.l.l.l.l.l.l.: N 6 l.l.l.l.l.l."
};
